<svg width="87" height="87" viewBox="0 0 87 87" fill="none" xmlns="http://www.w3.org/2000/svg">
<path d="M40.1538 0V16.7308H46.8462V0H40.1538ZM15.0577 10.3522L10.3522 15.0577L22.1683 26.9784L26.9784 22.1683L15.0577 10.3522ZM71.9423 10.3522L60.0216 22.1683L64.8317 26.9784L76.6478 15.0577L71.9423 10.3522ZM43.5 20.0769C30.599 20.0769 20.0769 30.599 20.0769 43.5C20.0769 56.401 30.599 66.9231 43.5 66.9231C56.401 66.9231 66.9231 56.401 66.9231 43.5C66.9231 30.599 56.401 20.0769 43.5 20.0769ZM43.5 26.7692C52.7803 26.7692 60.2308 34.2197 60.2308 43.5C60.2308 52.7803 52.7803 60.2308 43.5 60.2308C34.2197 60.2308 26.7692 52.7803 26.7692 43.5C26.7692 34.2197 34.2197 26.7692 43.5 26.7692ZM0 40.1538V46.8462H16.7308V40.1538H0ZM70.2692 40.1538V46.8462H87V40.1538H70.2692ZM22.1683 60.0216L10.3522 71.9423L15.0577 76.6478L26.9784 64.8317L22.1683 60.0216ZM64.8317 60.0216L60.0216 64.8317L71.9423 76.6478L76.6478 71.9423L64.8317 60.0216ZM40.1538 70.2692V87H46.8462V70.2692H40.1538Z" fill="#13890C"/>
</svg>
