<svg width="83" height="51" viewBox="0 0 83 51" fill="none" xmlns="http://www.w3.org/2000/svg">
<g clip-path="url(#clip0_533_7288)">
<path d="M41.3371 50.9964C29.2882 50.9964 17.2392 50.9964 5.1903 50.9925C1.55099 50.9925 0.00832712 49.4726 0.00448007 45.8682C0.000633028 32.278 0.000633028 18.6839 0.00832712 5.08981C0.0121742 1.5743 1.56638 0.00798873 5.03641 0.00412129C29.3267 0.000253842 53.6169 0.000253842 77.9033 0.00412129C81.4118 0.00412129 82.9852 1.55497 82.9891 5.0318C83.0006 18.6259 83.0006 32.2199 82.9891 45.814C82.9891 49.4494 81.4541 50.9964 77.8648 50.9964C65.6889 51.0041 53.513 50.9964 41.3371 50.9964ZM77.0223 16.0037C71.0363 14.9595 66.7469 11.9893 64.1501 6.64839C63.927 6.1843 63.0768 5.77048 62.5151 5.77048C48.4849 5.72021 34.4548 5.72407 20.4207 5.76275C19.9014 5.76275 19.1051 6.11468 18.905 6.53237C16.3121 11.9507 11.9803 14.9711 5.9674 16.0076C5.9674 22.0988 5.94816 28.1359 6.01356 34.1691C6.01356 34.5211 6.64448 35.0935 7.05996 35.1824C12.4381 36.3156 16.3313 39.3167 18.805 44.2554C19.0474 44.735 19.8398 45.2262 20.3784 45.2262C34.474 45.2803 48.5696 45.2764 62.6651 45.23C63.1653 45.23 63.9193 44.8162 64.127 44.3869C66.593 39.3554 70.5208 36.3078 75.9798 35.1708C76.3837 35.0857 76.9723 34.4785 76.9761 34.1073C77.0377 28.1282 77.0185 22.1452 77.0185 15.996L77.0223 16.0037Z" fill="black"/>
<path d="M41.5902 41.5015C32.7343 41.5634 25.5442 34.3777 25.5596 25.4865C25.575 16.6532 32.6112 9.54098 41.4094 9.46363C50.2192 9.38628 57.4324 16.5991 57.4401 25.5019C57.4477 34.3236 50.4 41.4397 41.5902 41.5015ZM43.5599 16.9587C43.0136 16.4289 42.5443 15.6361 41.898 15.4466C41.3363 15.2841 40.0014 15.8024 40.0014 16.0189C40.0014 17.3996 38.9665 17.4383 38.1279 17.8173C36.2852 18.6527 35.1618 20.0024 35.1926 22.1527C35.2234 24.2295 36.3159 25.5251 38.1587 26.2213C39.3551 26.6738 40.6439 26.8942 41.8018 27.4124C42.4866 27.718 43.1483 28.3174 43.5214 28.9633C43.6638 29.2069 43.0136 30.3362 42.652 30.3788C41.7749 30.4793 40.3976 30.4909 40.036 29.9688C39.0281 28.5069 37.7009 28.8666 36.416 28.8318C35.2926 28.8009 34.9579 29.6169 35.5311 30.344C36.4044 31.4539 37.5816 32.3241 38.6049 33.318C39.0473 33.7473 39.4051 34.2656 39.8629 34.6755C40.2784 35.0468 40.767 35.565 41.2401 35.5844C41.8326 35.6076 42.9675 35.1783 42.9636 34.9578C42.9405 33.5501 44.0408 33.5694 44.8487 33.1943C46.6991 32.3396 47.7763 30.955 47.7917 28.8434C47.8071 26.7472 46.6376 25.4942 44.8179 24.7864C43.6253 24.3224 42.3366 24.0903 41.1863 23.5489C40.5169 23.2317 39.9206 22.582 39.5398 21.9323C39.4013 21.6925 39.9514 20.6599 40.2515 20.6289C41.0786 20.5439 42.3404 20.4859 42.7136 20.9693C44.0562 22.7212 45.6643 21.9516 47.2223 21.9593C47.3993 19.5229 46.5298 18.5212 43.5522 16.9626L43.5599 16.9587Z" fill="black"/>
</g>
<defs>
<clipPath id="clip0_533_7288">
<rect width="83" height="51" fill="white"/>
</clipPath>
</defs>
</svg>
