<svg width="137" height="116" viewBox="0 0 137 116" fill="none" xmlns="http://www.w3.org/2000/svg">
<path d="M5.76842 0C2.59128 0 0 2.60547 0 5.8C0 8.99453 2.59128 11.6 5.76842 11.6H18.5671L33.7092 72.5C34.9936 77.6656 39.5903 81.2 44.8855 81.2H111.042C116.247 81.2 120.664 77.7336 122.038 72.6813L137 17.4H40.3789L43.2632 29H122.038L111.042 69.6H44.8855L29.7434 8.7C28.459 3.53438 23.8623 0 18.5671 0H5.76842ZM103.832 81.2C94.3452 81.2 86.5263 89.0617 86.5263 98.6C86.5263 108.138 94.3452 116 103.832 116C113.318 116 121.137 108.138 121.137 98.6C121.137 89.0617 113.318 81.2 103.832 81.2ZM51.9158 81.2C42.4294 81.2 34.6105 89.0617 34.6105 98.6C34.6105 108.138 42.4294 116 51.9158 116C61.4021 116 69.2211 108.138 69.2211 98.6C69.2211 89.0617 61.4021 81.2 51.9158 81.2ZM51.9158 92.8C55.1605 92.8 57.6842 95.3375 57.6842 98.6C57.6842 101.863 55.1605 104.4 51.9158 104.4C48.6711 104.4 46.1474 101.863 46.1474 98.6C46.1474 95.3375 48.6711 92.8 51.9158 92.8ZM103.832 92.8C107.076 92.8 109.6 95.3375 109.6 98.6C109.6 101.863 107.076 104.4 103.832 104.4C100.587 104.4 98.0632 101.863 98.0632 98.6C98.0632 95.3375 100.587 92.8 103.832 92.8Z" fill="white"/>
</svg>
