<svg width="71" height="55" viewBox="0 0 71 55" fill="none" xmlns="http://www.w3.org/2000/svg">
<g clip-path="url(#clip0_533_7295)">
<path d="M41.2011 16.1277C49.3625 16.1277 57.5239 16.1216 65.6852 16.1277C69.3159 16.1277 70.8292 17.6381 70.8292 21.2275C70.8292 30.8004 70.8292 40.3732 70.8231 49.9461C70.8231 53.4102 69.2389 54.9756 65.7469 54.9756C49.3224 54.9756 32.8949 54.9756 16.4704 54.9756C12.8829 54.9756 11.3511 53.4408 11.3511 49.8483C11.3511 40.2234 11.3511 30.6017 11.3511 20.9768C11.3511 17.687 12.9014 16.1369 16.2547 16.1338C24.5702 16.1216 32.8856 16.1308 41.2011 16.1277ZM68.1108 30.6322H14.014C13.9647 30.9196 13.903 31.1153 13.903 31.3079C13.8969 37.6246 13.8784 43.9413 13.903 50.258C13.9092 51.8539 14.5071 52.3676 16.2208 52.3676C32.8086 52.3706 49.3964 52.3676 65.9811 52.3615C67.7687 52.3615 68.2125 51.8967 68.2187 50.047C68.231 43.9841 68.2249 37.9212 68.2187 31.8613C68.2187 31.47 68.154 31.0756 68.1139 30.6322H68.1108ZM68.2218 23.5726C68.2218 23.0039 68.2218 22.5086 68.2218 22.0133C68.231 18.8091 68.0769 18.6623 64.8284 18.6623C49.9358 18.6623 35.0462 18.6623 20.1535 18.6623C18.7142 18.6623 17.2533 18.5095 15.8509 18.7296C15.1605 18.8366 14.202 19.5245 14.0294 20.136C13.7304 21.197 13.9462 22.3985 13.9462 23.5756H68.2187L68.2218 23.5726Z" fill="black"/>
<path d="M61.0096 13.4129C60.2483 13.4129 59.6473 13.4129 59.0463 13.4129C44.8749 13.4129 30.7065 13.4129 16.5351 13.4129C11.314 13.4129 8.58944 16.1279 8.58944 21.3378C8.58944 29.2321 8.58944 37.1265 8.58944 45.0208C8.58944 45.565 8.58944 46.1092 8.58944 46.8094C6.92511 46.2071 6.15458 45.0789 5.89261 43.6144C4.13273 33.6899 2.37902 23.7654 0.665382 13.8318C0.215397 11.2238 1.65473 9.29762 4.39779 8.8176C17.1268 6.58567 29.8651 4.39042 42.6003 2.18295C46.493 1.50726 50.3826 0.822389 54.2753 0.171154C56.5529 -0.211027 58.6333 0.981376 59.1141 3.17662C59.8446 6.497 60.3624 9.86325 61.0065 13.416L61.0096 13.4129Z" fill="black"/>
<path d="M57.2775 48.2645C55.8967 48.2645 54.5128 48.289 53.1321 48.2584C51.554 48.2217 50.8606 47.5674 50.8328 46.0479C50.7958 44.1706 50.7958 42.2903 50.8297 40.4099C50.8544 38.9515 51.5355 38.2605 52.9995 38.2422C55.8659 38.2086 58.7322 38.2055 61.5986 38.2422C63.0595 38.2605 63.719 38.9546 63.7468 40.4283C63.7807 42.3055 63.7807 44.1859 63.7468 46.0662C63.7221 47.5093 63.0317 48.2095 61.5801 48.2553C60.1469 48.3012 58.7137 48.2645 57.2806 48.2645H57.2775Z" fill="black"/>
</g>
<defs>
<clipPath id="clip0_533_7295">
<rect width="70.2439" height="54.878" fill="white" transform="translate(0.585449 0.0975342)"/>
</clipPath>
</defs>
</svg>
