<svg width="102" height="120" viewBox="0 0 102 120" fill="none" xmlns="http://www.w3.org/2000/svg">
<path d="M29.59 75.9363C28.3146 71.6739 26.7917 67.882 26.0969 63.9489C25.4211 60.1476 25.5924 56.1957 25.364 51.8863C21.5948 51.0206 17.8637 50.4184 14.304 49.2705C10.7157 48.1226 7.01314 46.8806 3.87218 44.8952C-1.24854 41.6678 -1.31516 36.5963 3.97688 33.67C8.45989 31.1954 13.6282 29.9063 18.5586 28.2691C20.624 27.5822 22.8512 27.3658 24.8214 26.9612C30.0849 7.39 37.6232 -0.193839 51.3483 0.00375456C65.0448 0.201348 72.9257 8.35915 76.9804 26.8671C79.6931 27.4693 82.6151 28.0527 85.4896 28.7866C88.0975 29.4452 90.7435 30.0663 93.2182 31.0824C97.1777 32.7102 101.813 34.4321 101.718 39.4661C101.632 44.1989 97.2634 46.109 93.342 47.4263C87.9833 49.2235 82.4438 50.5031 77.3802 51.8957C76.0191 59.9123 74.7056 67.675 73.2684 76.1997C84.1951 79.4271 93.8655 85.9947 98.9481 97.7845C101.737 104.249 102.594 111.014 101.604 118.861C99.8428 119.219 97.9582 119.943 96.0832 119.943C65.949 120.019 35.8243 120.009 5.69013 119.971C4.16724 119.971 2.65387 119.605 0.512305 119.332C-1.0201 109.179 0.873992 100.156 6.34688 91.8285C11.8769 83.3978 20.2242 78.8249 29.5995 75.9363H29.59ZM83.2814 114.166V86.7098C80.7115 85.5055 78.1702 84.3199 74.2392 82.4851V103.646H27.7149V82.2499L18.8822 86.7569V114.157H83.2814V114.166ZM69.5373 33.9805C72.6878 23.6774 69.6039 14.0894 62.0561 8.88607C55.1365 4.11559 45.8659 4.36964 39.0033 9.5259C32.1028 14.7104 29.2569 24.7124 32.5787 33.9805H69.5468H69.5373ZM32.1599 52.8366C29.4758 61.8883 32.2265 71.2975 38.7559 75.7104C46.1419 80.7067 56.8021 80.5844 63.7027 75.4282C69.9275 70.78 72.5069 61.2673 69.7657 52.846H32.1599V52.8366ZM5.89001 37.8195V40.4446C8.87868 41.5926 11.7722 43.2768 14.8655 43.7943C23.7364 45.281 32.6548 46.7676 41.6208 47.3981C57.3161 48.4989 72.9543 47.5392 88.2308 43.4274C90.9529 42.6934 93.4657 41.1974 97.1777 39.5696C90.1915 34.7426 83.6811 33.7641 76.9233 32.9737C76.5711 34.1781 76.4189 34.9308 76.1238 35.6365C75.8287 36.3422 75.4099 37.0009 74.8008 38.13C58.839 41.1503 42.8011 41.4232 26.8773 37.9136L24.5169 32.3057C18.2064 34.1687 12.0482 35.9941 5.88049 37.8195H5.89001ZM68.6902 79.3236C56.5356 86.7569 45.2091 86.2017 33.3496 79.6341V98.1985H68.6902V79.333V79.3236ZM90.6769 94.6042L89.4015 94.9711V114.044H96.1212C96.6162 106.497 94.96 100.156 90.6769 94.6136V94.6042ZM12.2766 114.251V94.7547C7.12736 100.513 5.05242 106.827 6.05182 114.251H12.2766Z" fill="white"/>
</svg>
