<svg width="100" height="100" viewBox="0 0 100 100" fill="none" xmlns="http://www.w3.org/2000/svg">
<g clip-path="url(#clip0_389_7278)">
<path d="M19.7605 26.7629V25.3429C20.0567 24.8686 20.2626 24.2835 20.6688 23.9427C22.8635 22.1024 24.9904 20.157 27.3515 18.5637C30.0201 16.766 33.0977 16.6836 36.1781 17.3624C38.7818 17.9446 40.7677 19.376 41.4814 21.0999L45.6705 17.848C46.7283 17.0244 47.9272 17.0557 48.7057 17.9332C49.4843 18.8108 49.3489 20.0576 48.4237 20.9863C48.1416 21.2901 47.7833 21.5543 47.4815 21.8383C45.8574 23.3903 44.5812 25.2736 43.7381 27.3621C49.0979 29.3927 51.9188 33.0848 52.0316 38.7733C52.091 39.9995 52.2734 41.2165 52.576 42.4057C52.9371 43.9905 53.3856 45.5298 55.5634 45.3764C56.1783 45.3338 56.8328 45.6604 57.4534 45.8791C58.2658 46.1631 59.0641 46.484 59.9668 46.8305C60.0147 46.1034 60.0373 45.5866 60.0881 45.0725C60.3116 42.8924 61.2357 40.8452 62.72 39.2419C63.6057 38.2536 64.6946 38.1514 65.6029 38.8699C66.5113 39.5884 66.6241 40.804 65.885 41.9116C65.5185 42.4004 65.184 42.9126 64.8836 43.4452C64.3194 44.5812 63.9076 45.757 64.3984 47.1628C65.8089 46.643 67.1008 46.1006 68.4323 45.6831C74.3195 43.8399 79.998 46.2966 82.2801 51.6756C82.6778 52.6156 82.9204 53.621 83.2336 54.5951V57.7191C82.3083 60.2752 81.4987 62.8908 80.4352 65.3872C78.5791 69.7467 76.4183 73.9442 72.8526 77.1989C68.9767 80.7375 65.2362 80.4535 62.5479 78.8092C59.3123 80.6864 55.8934 80.2746 52.7171 77.4829C51.8934 76.7587 51.3602 76.7615 50.4603 77.3011C45.9949 79.9395 41.1993 80.6609 36.2035 79.3885C22.5617 75.9095 17.0214 60.0764 25.5236 48.7958C27.9368 45.6984 29.354 41.9334 29.5857 38.0037C29.7042 36.1577 30.6858 34.3656 31.2782 32.5537C31.3211 32.3995 31.3837 32.2515 31.4644 32.1135C28.4517 31.1535 25.5236 30.2249 22.5983 29.2734C21.969 29.095 21.3875 28.7769 20.8964 28.3424C20.4053 27.9079 20.0172 27.3682 19.7605 26.7629ZM48.8863 45.757C48.5083 42.9482 48.1331 40.395 47.8228 37.8304C47.3715 34.0873 44.6493 31.3722 41.3347 31.412C37.1683 31.4659 33.7634 34.3259 33.6675 38.1911C33.5462 43.2293 31.7945 47.5263 28.7451 51.4569C24.384 57.0745 24.6717 64.9981 29.2641 70.4396C31.4723 73.0559 34.496 74.8417 37.8419 75.5055C41.1878 76.1693 44.6583 75.672 47.6874 74.0947C48.119 73.8704 48.5167 73.5807 48.9314 73.3222H48.4716C46.559 69.0168 44.638 64.7283 42.7931 60.403C41.968 58.4298 41.7585 56.2507 42.1923 54.1549C42.9737 50.0681 45.3263 47.2707 48.8863 45.757ZM79.2138 56.302C79.022 51.6557 75.3322 48.5402 70.8639 49.4206C69.855 49.6309 68.8688 49.939 67.9189 50.3408C65.6622 51.2751 63.3265 51.8034 60.9146 51.2638C59.0951 50.8576 57.3292 50.2044 55.538 49.6677C49.8962 47.9637 44.8975 52.2237 46.3983 57.7987C47.899 63.3736 50.3475 68.7328 54.2206 73.1916C55.0698 74.1376 56.0929 74.9091 57.2333 75.4636C58.8638 76.2673 59.696 75.7931 60.7087 74.2878C61.098 73.7198 61.9329 73.0723 62.5394 73.095C63.2249 73.1178 64.0909 73.7085 64.5141 74.3106C65.5634 75.8186 66.4887 76.3327 68.1135 75.3756C69.5246 74.5456 70.7809 73.474 71.8258 72.2089C74.7455 68.622 76.5029 64.3762 78.1052 60.0735C78.5565 58.841 78.8471 57.5573 79.2138 56.302ZM24.6999 25.7944C26.6745 26.3624 28.3389 26.8992 30.0427 27.3138C32.0737 27.808 33.9665 27.2712 35.6845 26.2034C36.7621 25.5388 38.023 24.7692 37.7042 23.2725C37.4221 21.8894 36.0399 21.6054 34.8326 21.3526C30.5871 20.4637 27.7888 22.9885 24.6999 25.7944Z" fill="#CC00FF"/>
<ellipse opacity="0.2" cx="49.4012" cy="50" rx="49.4012" ry="50" fill="#CC00FF"/>
</g>
<defs>
<clipPath id="clip0_389_7278">
<rect width="100" height="100" fill="white"/>
</clipPath>
</defs>
</svg>
