<svg width="73" height="62" viewBox="0 0 73 62" fill="none" xmlns="http://www.w3.org/2000/svg">
<g clip-path="url(#clip0_533_7297)">
<path d="M7.61431 31.0184C7.91952 40.0902 11.9021 47.0146 19.7632 51.5411C24.2892 54.1448 29.221 54.9267 34.3946 54.1785C38.3549 53.6061 41.8872 52.0349 45.0919 49.6632C46.6849 48.4811 48.5534 48.526 49.8375 49.7418C51.5795 51.3915 51.5162 53.868 49.5733 55.327C48.1775 56.3782 46.6961 57.3471 45.1589 58.1701C41.4852 60.1415 37.5584 61.2675 33.386 61.5855C25.2942 62.2065 18.1106 59.9133 11.7905 54.8593C7.4766 51.4102 4.40216 47.0146 2.40713 41.8634C1.46544 39.428 0.821525 36.9029 0.624256 34.288C0.493983 32.5859 0.296713 30.8613 0.426986 29.1704C0.948076 22.5527 3.16643 16.5934 7.42821 11.4459C10.8637 7.29346 15.0622 4.23339 20.0609 2.28811C22.551 1.31921 25.1267 0.660803 27.7954 0.451311C29.2433 0.339083 30.7023 0.155778 32.1428 0.238078C38.5522 0.597207 44.3661 2.66594 49.5025 6.57147C50.9244 7.65259 51.412 9.2986 50.835 10.8286C50.2842 12.2839 48.773 13.2827 47.1502 13.0956C46.4839 13.0208 45.7619 12.7365 45.2222 12.3362C42.3859 10.2189 39.2743 8.7225 35.8165 7.98928C33.0584 7.40569 30.2743 7.3421 27.4716 7.76856C23.3736 8.3933 19.7073 9.99067 16.4766 12.5757C12.6726 15.6208 10.0262 19.4702 8.623 24.1725C7.95674 26.4021 7.61431 28.6691 7.61431 31.0147V31.0184Z" fill="black"/>
<path d="M42.5054 34.7071C42.1592 34.6809 41.9024 34.6472 41.6418 34.6472C39.2746 34.6435 36.9111 34.6547 34.5438 34.6397C32.8875 34.6285 31.4061 33.4613 31.0265 31.9089C30.6282 30.2703 31.3094 28.6019 32.7907 27.8275C33.3156 27.5544 33.952 27.3636 34.5438 27.3561C38.5935 27.3113 42.6431 27.3113 46.6927 27.33C48.8254 27.3374 50.4185 28.946 50.3627 31.0971C50.1579 38.8071 46.6034 44.5158 39.9222 48.2118C35.6084 50.5985 30.9595 51.0736 26.225 49.8391C20.7312 48.4063 16.5774 45.1031 13.8975 40.0678C9.59104 31.9837 11.4558 22.0029 18.4161 16.0885C22.6295 12.5084 27.5649 11.0869 33.0736 11.633C36.0103 11.9248 38.6828 12.9237 41.1989 14.4163C42.9185 15.4376 43.5327 17.6148 42.5575 19.2944C41.5116 21.0938 39.2634 21.7448 37.5364 20.6861C35.2101 19.257 32.7051 18.6248 29.988 18.8156C24.7585 19.1822 20.2697 23.2336 19.1642 28.4261C17.9694 34.0374 20.9359 39.6264 25.8081 42.0056C31.9161 44.9871 39.6915 41.9869 42.1704 35.6161C42.2746 35.3468 42.3714 35.0737 42.5054 34.7033V34.7071Z" fill="black"/>
<path d="M64.9274 10.0207C66.4981 10.0394 67.5142 10.6679 68.1507 11.936C70.5366 16.6758 72.0291 21.6737 72.4869 26.9746C72.5874 28.1342 72.7438 29.2902 72.8182 30.4536C72.8554 31.0409 72.7661 31.6357 72.7289 32.2268C72.4981 36.0463 72.0403 39.8396 70.7822 43.4683C69.9783 45.7914 69.018 48.0696 67.9572 50.2843C67.2053 51.8555 65.3443 52.3904 63.7214 51.7657C62.1061 51.1447 61.1234 49.4313 61.4547 47.7554C61.5366 47.3364 61.6892 46.9174 61.879 46.5321C64.4845 41.2686 65.6755 35.6947 65.4894 29.8251C65.3294 24.8198 64.1681 20.0613 61.9497 15.5685C61.0378 13.7167 61.2798 12.1231 62.6458 10.8961C63.3418 10.2713 64.1569 9.98327 64.9237 10.0207H64.9274Z" fill="black"/>
<path d="M61.5103 31.0335C61.4768 35.272 60.6319 39.3384 58.9718 43.2364C58.3428 44.7103 57.3676 45.7653 55.7187 45.8999C52.9532 46.1244 51.0996 43.4459 52.1716 40.8422C53.9954 36.413 54.7063 31.8228 53.8614 27.0831C53.5115 25.1191 52.916 23.1738 52.2311 21.2996C51.5128 19.3394 52.1306 17.2108 53.8986 16.384C55.7113 15.5386 57.8813 16.2793 58.715 18.2096C59.4557 19.923 60.0549 21.7074 60.5649 23.5068C61.2572 25.9571 61.5066 28.4897 61.5103 31.0372V31.0335Z" fill="black"/>
</g>
<defs>
<clipPath id="clip0_533_7297">
<rect width="72.439" height="61.4634" fill="white" transform="translate(0.390137 0.219482)"/>
</clipPath>
</defs>
</svg>
