<svg width="96" height="96" viewBox="0 0 96 96" fill="none" xmlns="http://www.w3.org/2000/svg">
<rect x="0.5" y="0.5" width="95" height="95" rx="47.5" fill="#13890C"/>
<rect x="0.5" y="0.5" width="95" height="95" rx="47.5" stroke="#13890C"/>
<path d="M62 28H34C33.4696 28 32.9609 27.7893 32.5858 27.4142C32.2107 27.0391 32 26.5304 32 26C32 25.4696 32.2107 24.9609 32.5858 24.5858C32.9609 24.2107 33.4696 24 34 24H62C62.5304 24 63.0391 24.2107 63.4142 24.5858C63.7893 24.9609 64 25.4696 64 26C64 26.5304 63.7893 27.0391 63.4142 27.4142C63.0391 27.7893 62.5304 28 62 28Z" fill="white"/>
<path d="M66 34H30C29.4696 34 28.9609 33.7893 28.5858 33.4142C28.2107 33.0391 28 32.5304 28 32C28 31.4696 28.2107 30.9609 28.5858 30.5858C28.9609 30.2107 29.4696 30 30 30H66C66.5304 30 67.0391 30.2107 67.4142 30.5858C67.7893 30.9609 68 31.4696 68 32C68 32.5304 67.7893 33.0391 67.4142 33.4142C67.0391 33.7893 66.5304 34 66 34Z" fill="white"/>
<path d="M68.3913 72H27.6088C26.1217 71.9983 24.6961 71.4069 23.6446 70.3554C22.5931 69.3039 22.0017 67.8783 22 66.3913V41.6087C22.0017 40.1217 22.5931 38.6961 23.6446 37.6446C24.6961 36.5931 26.1217 36.0017 27.6088 36H68.3913C69.8783 36.0017 71.3039 36.5931 72.3554 37.6446C73.4069 38.6961 73.9983 40.1217 74 41.6087V66.3913C73.9983 67.8783 73.4069 69.3039 72.3554 70.3554C71.3039 71.4069 69.8783 71.9983 68.3913 72Z" fill="white"/>
</svg>
