<svg width="443" height="443" viewBox="0 0 443 443" fill="none" xmlns="http://www.w3.org/2000/svg">
<path d="M443 99.8005V343.063C442.923 369.508 432.38 394.848 413.675 413.547C394.97 432.247 369.622 442.786 343.169 442.863H99.8313C80.0377 442.838 60.6997 436.923 44.2812 425.871C29.7813 416.083 18.0684 402.703 10.2863 387.038C3.51771 373.396 -0.00279907 358.374 1.66978e-06 343.146V99.8005C0.0772215 73.3555 10.6199 48.0157 29.3252 29.3162C48.0305 10.6166 73.3781 0.077196 99.8313 0L343.169 0C369.622 0.077196 394.97 10.6166 413.675 29.3162C432.38 48.0157 442.923 73.3555 443 99.8005Z" fill="url(#paint0_linear_18_2062)"/>
<path d="M329.767 333.198C221.364 331.588 129.603 370.234 44.2813 425.871C29.7813 416.083 18.0684 402.703 10.2864 387.038C59.5225 272.607 108.926 157.758 159.145 41.0071C197.447 130.357 234.41 216.719 271.437 302.975C248.836 304.146 226.946 305.86 205.036 305.985C200.541 305.985 193.934 301.115 191.906 296.81C183.292 278.564 176.121 259.648 168.218 241.068C166.128 236.073 163.243 231.37 158.476 222.257L108.299 340.931C146.308 333.741 182.665 325.82 219.378 320.156C256.969 314.345 293.494 322.497 329.767 333.198Z" fill="white"/>
<path d="M378.251 361.725C294.727 362.08 227.824 394.644 169.18 442.861H99.8313C87.5349 442.876 75.3447 440.586 63.8921 436.111C99.9993 412.931 138.486 393.683 178.693 378.696C238.445 356.605 299.766 348.035 363.135 358.026C367.149 358.674 371.059 359.949 378.251 361.725Z" fill="white"/>
<path d="M331.858 442.862H248.794C245.691 441.637 242.238 441.637 239.135 442.862H201C230.657 420.522 263.88 403.357 299.264 392.094C308.923 389.022 311.076 394.602 313.899 400.914C319.878 414.876 325.858 428.879 331.858 442.862Z" fill="white"/>
<defs>
<linearGradient id="paint0_linear_18_2062" x1="91.7821" y1="-33.8381" x2="329.421" y2="434.102" gradientUnits="userSpaceOnUse">
<stop stop-color="#13890C"/>
<stop offset="1" stop-color="#FBDD3B"/>
</linearGradient>
</defs>
</svg>
