<svg width="100" height="100" viewBox="0 0 100 100" fill="none" xmlns="http://www.w3.org/2000/svg">
<g clip-path="url(#clip0_389_7276)">
<circle opacity="0.2" cx="50.2532" cy="50.2532" r="49.7468" fill="#FF6B00"/>
<path d="M17.5194 72.2172V69.9019C19.4613 65.1644 21.0241 64.3222 26.4476 65.0573C26.7206 65.1017 27.0001 65.0373 27.2261 64.8779C28.2708 63.8794 29.2924 62.852 30.2677 61.7899C30.424 61.6163 30.3835 61.1677 30.3054 60.8841C29.1477 56.7224 29.8191 52.8473 31.7061 48.9953C32.69 46.9673 33.3492 44.7973 33.6596 42.5647C34.357 37.422 35.8214 32.5484 38.5505 28.1783C40.2349 25.4753 42.4083 23.053 44.5412 20.6538C46.3153 18.6772 48.9026 18.1475 51.3799 17.5195H55.1421C55.7933 17.6642 56.4474 17.8089 57.0956 17.9594C66.9528 20.3297 74.078 26.3522 78.995 34.9562C80.6938 37.9342 81.4491 41.4534 82.6357 44.7237V49.0647C82.5981 49.0966 82.5344 49.1226 82.5286 49.1574C81.8485 53.1396 79.5767 55.9584 76.3845 58.3547C71.1488 62.3208 65.0471 64.9888 58.5803 66.1397C55.3788 66.7656 52.226 67.6186 49.1457 68.6922C46.7378 69.4939 44.2605 70.53 41.8411 69.8499C38.811 68.9816 37.0948 70.3418 35.4394 72.3822C35.4109 72.4208 35.3768 72.4549 35.3381 72.4834C34.7043 72.9436 34.6551 73.4616 34.8809 74.2199C35.9488 77.8751 34.2008 81.1309 30.6092 82.3522C30.3864 82.4274 30.178 82.5403 29.9639 82.6416H27.6486C25.1568 81.8023 23.241 80.3813 22.5637 77.6696C22.5145 77.5372 22.4373 77.417 22.3374 77.3171C22.2375 77.2173 22.1173 77.1401 21.9849 77.0908C19.5452 76.3239 18.3616 74.434 17.5194 72.2172ZM70.7932 55.5301C75.0677 55.6863 78.8011 52.1527 78.5666 46.7379C78.5447 45.5346 78.3874 44.3377 78.0978 43.1696C75.6899 34.4179 70.0407 28.3288 62.2528 24.0427C59.2951 22.4163 56.1203 21.4815 52.7025 21.5828C47.9157 21.7246 44.8306 24.7142 44.712 29.4807C44.6555 31.1159 44.8309 32.7509 45.2329 34.3369C47.0996 41.2826 51.4464 46.5324 57.1477 50.7115C60.9042 53.4608 65.0196 55.3767 70.7932 55.5301ZM40.5793 32.9014C39.171 35.6256 38.2568 38.5779 37.8791 41.6212C37.39 45.2359 36.4899 48.6364 34.8259 51.927C32.6293 56.268 33.5785 60.9854 36.898 63.7926C39.9339 66.3625 43.4617 66.5593 46.9606 65.1673C50.7519 63.6595 54.6357 62.7044 58.6295 61.9838C61.0721 61.5381 63.4336 60.6352 65.8212 59.9117C66.1092 59.7916 66.3806 59.635 66.6287 59.4457C53.0382 55.4635 44.3705 46.7755 40.5793 32.9014ZM32.3775 65.0255C31.2199 66.3191 30.1578 67.5664 29.0204 68.7328C27.5734 70.2087 27.145 70.2232 25.4549 69.0742C24.5201 68.4404 23.5506 68.3478 22.6245 68.9932C22.1892 69.2655 21.8589 69.6772 21.6876 70.1613C21.5163 70.6453 21.514 71.1731 21.6811 71.6586C22.0023 72.7237 22.7577 73.3025 23.9095 73.3951C26.0482 73.5687 26.3694 73.9131 26.4071 76.0345C26.4302 77.2297 26.9251 78.0863 28.0711 78.4597C28.5519 78.64 29.0795 78.6523 29.5682 78.4947C30.0569 78.337 30.4778 78.0187 30.7626 77.5915C31.4832 76.6248 31.3675 75.6235 30.6874 74.6511C29.5963 73.097 29.6281 72.5037 31.0086 71.1782C32.2878 69.9598 33.6364 68.8138 34.9995 67.5954L32.3775 65.0255Z" fill="#FF6B00"/>
<path d="M64.9529 44.4344C60.7218 44.2781 55.8888 39.4624 55.7238 35.24C55.6138 32.4443 57.6831 30.4735 60.4845 30.7021C64.7214 31.0465 69.1088 35.4165 69.4561 39.6418C69.6963 42.4462 67.7312 44.5328 64.9529 44.4344ZM65.416 40.3162C65.2742 37.4539 62.2152 34.528 59.8334 34.8724C59.897 37.5118 62.6898 40.2872 65.416 40.3133V40.3162Z" fill="#FF6B00"/>
</g>
<defs>
<clipPath id="clip0_389_7276">
<rect width="100" height="100" fill="white"/>
</clipPath>
</defs>
</svg>
