<svg width="16" height="18" viewBox="0 0 16 18" fill="none" xmlns="http://www.w3.org/2000/svg">
<path d="M2.23436 17.6251C1.94656 17.6245 1.66385 17.5491 1.41405 17.4062C0.851549 17.0874 0.501862 16.4687 0.501862 15.797V2.20321C0.501862 1.52961 0.851549 0.912739 1.41405 0.593989C1.6698 0.447006 1.96034 0.37142 2.25529 0.37513C2.55025 0.378841 2.83879 0.461713 3.09077 0.615083L14.7087 7.56946C14.9509 7.72128 15.1505 7.93211 15.2888 8.18218C15.4272 8.43225 15.4998 8.71336 15.4998 8.99915C15.4998 9.28494 15.4272 9.56605 15.2888 9.81611C15.1505 10.0662 14.9509 10.277 14.7087 10.4288L3.08889 17.3851C2.83103 17.541 2.53568 17.6239 2.23436 17.6251Z" fill="#13890C"/>
</svg>
