<svg width="108" height="107" viewBox="0 0 108 107" fill="none" xmlns="http://www.w3.org/2000/svg">
<path d="M31.3306 67.7098C29.9801 63.9092 28.3677 60.5281 27.632 57.0211C26.9164 53.6316 27.0978 50.1078 26.856 46.2653C22.8651 45.4934 18.9145 44.9564 15.1454 43.9329C11.346 42.9093 7.42568 41.8018 4.09996 40.0316C-1.32198 37.1538 -1.39253 32.6317 4.21081 30.0224C8.95753 27.8159 14.4299 26.6664 19.6502 25.2066C21.8371 24.5941 24.1954 24.4012 26.2815 24.0404C31.8546 6.58942 39.8364 -0.17284 54.3688 0.00334782C68.8709 0.179536 77.2155 7.45358 81.5087 23.9565C84.3809 24.4935 87.4748 25.0136 90.5184 25.668C93.2797 26.2553 96.0814 26.8091 98.7017 27.7152C102.894 29.1666 107.802 30.702 107.701 35.1906C107.611 39.4107 102.985 41.1139 98.8327 42.2884C93.1588 43.8909 87.2934 45.0319 81.932 46.2736C80.4908 53.4218 79.1001 60.3435 77.5783 67.9448C89.1478 70.8225 99.387 76.6786 104.769 87.1912C107.721 92.955 108.628 98.9874 107.58 105.985C105.716 106.303 103.72 106.949 101.735 106.949C69.8283 107.017 37.9316 107.008 6.02484 106.975C4.41237 106.975 2.80998 106.647 0.542441 106.404C-1.08011 97.3513 0.925403 89.3054 6.72022 81.8804C12.5755 74.363 21.4139 70.2855 31.3407 67.7098H31.3306ZM88.1803 101.798V77.3163C85.4592 76.2424 82.7684 75.1852 78.6062 73.5492V92.4181H29.3452V73.3395L19.9929 77.3582V101.79H88.1803V101.798ZM73.6277 30.2993C76.9635 21.1123 73.6983 12.563 65.7065 7.92341C58.3798 3.66973 48.5639 3.89626 41.2977 8.49393C33.9912 13.1168 30.9778 22.0352 34.495 30.2993H73.6378H73.6277ZM34.0516 47.1126C31.2096 55.1837 34.1222 63.5736 41.0356 67.5085C48.8561 71.9635 60.1434 71.8544 67.4499 67.2568C74.0409 63.1122 76.772 54.63 73.8696 47.121H34.0516V47.1126ZM6.23648 33.7224V36.0631C9.40096 37.0867 12.4647 38.5885 15.74 39.0499C25.1326 40.3755 34.5757 41.7011 44.0691 42.2633C60.6876 43.2449 77.2457 42.3891 93.4208 38.7227C96.3031 38.0683 98.9637 36.7343 102.894 35.2829C95.4969 30.9789 88.6036 30.1063 81.4482 29.4016C81.0753 30.4755 80.9141 31.1467 80.6017 31.7759C80.2893 32.4051 79.8458 32.9924 79.2008 33.9992C62.3001 36.6924 45.3188 36.9357 28.4584 33.8063L25.959 28.8059C19.2773 30.4671 12.7569 32.0947 6.2264 33.7224H6.23648ZM72.7308 70.7302C59.8612 77.3582 47.8685 76.8632 35.3114 71.0071V87.5603H72.7308V70.7386V70.7302ZM96.0108 84.3554L94.6604 84.6826V101.689H101.775C102.299 94.9602 100.546 89.3054 96.0108 84.3638V84.3554ZM12.9988 101.874V84.4896C7.54661 89.6242 5.34962 95.2539 6.40781 101.874H12.9988Z" fill="#13890C"/>
</svg>
