<svg width="101" height="81" viewBox="0 0 101 81" fill="none" xmlns="http://www.w3.org/2000/svg">
<path d="M0 0V70.875H10.626C12.1253 76.6758 17.3331 81 23.5667 81C29.8003 81 35.0081 76.6758 36.5073 70.875H64.4927C65.9919 76.6758 71.1997 81 77.4333 81C83.6669 81 88.8747 76.6758 90.374 70.875H101V35.7539L100.053 34.6992L79.8531 14.4492L78.801 13.5H60.6V0H0ZM6.73333 6.75H53.8667V64.125H36.5073C35.0081 58.3242 29.8003 54 23.5667 54C17.3331 54 12.1253 58.3242 10.626 64.125H6.73333V6.75ZM60.6 20.25H75.9604L94.2667 38.6016V64.125H90.374C88.8747 58.3242 83.6669 54 77.4333 54C71.1997 54 65.9919 58.3242 64.4927 64.125H60.6V20.25ZM23.5667 60.75C27.3279 60.75 30.3 63.7295 30.3 67.5C30.3 71.2705 27.3279 74.25 23.5667 74.25C19.8055 74.25 16.8333 71.2705 16.8333 67.5C16.8333 63.7295 19.8055 60.75 23.5667 60.75ZM77.4333 60.75C81.1945 60.75 84.1667 63.7295 84.1667 67.5C84.1667 71.2705 81.1945 74.25 77.4333 74.25C73.6721 74.25 70.7 71.2705 70.7 67.5C70.7 63.7295 73.6721 60.75 77.4333 60.75Z" fill="#13890C"/>
</svg>
