<svg width="81" height="81" viewBox="0 0 81 81" fill="none" xmlns="http://www.w3.org/2000/svg">
<path d="M64.0195 0.000683364C63.5054 0.013866 62.9648 0.0797859 62.4375 0.211619L7.59375 14.6607C3.16406 15.8209 0 19.8814 0 24.4692V70.8751C0 76.4253 4.57471 81 10.125 81H70.875C76.4253 81 81 76.4253 81 70.8751V27.0005C81 21.4502 76.4253 16.8755 70.875 16.8755H25.7344L64.125 6.75063V13.5006H70.875V6.75063C70.875 2.95378 67.645 -0.0520506 64.0195 0.000683364ZM10.125 23.6255H70.875C72.7866 23.6255 74.25 25.0889 74.25 27.0005V70.8751C74.25 72.7867 72.7866 74.2501 70.875 74.2501H10.125C8.21338 74.2501 6.75 72.7867 6.75 70.8751V27.0005C6.75 25.0889 8.21338 23.6255 10.125 23.6255ZM62.4375 43.8753C59.6426 43.8753 57.375 46.1429 57.375 48.9378C57.375 51.7327 59.6426 54.0002 62.4375 54.0002C65.2324 54.0002 67.5 51.7327 67.5 48.9378C67.5 46.1429 65.2324 43.8753 62.4375 43.8753Z" fill="#13890C"/>
</svg>
