<svg width="96" height="96" viewBox="0 0 96 96" fill="none" xmlns="http://www.w3.org/2000/svg">
<rect x="0.5" y="0.5" width="95" height="95" rx="47.5" fill="#EF4444"/>
<rect x="0.5" y="0.5" width="95" height="95" rx="47.5" stroke="#EF4444"/>
<g clip-path="url(#clip0_18_2083)">
<path d="M20.4504 80.0001C26.9623 71.2699 35.7663 66.4504 47.2156 65.2249C47.0248 61.3632 46.9308 57.5451 46.6091 53.7477C46.4526 51.4034 46.0609 49.0768 45.4388 46.7965C44.6245 44.0238 42.6484 41.8406 40.0089 40.2289C34.9463 37.1395 29.4908 34.9537 23.2921 34.6062C22.9618 34.5881 22.6286 34.5907 22.2955 34.6062C22.0368 34.6362 21.7802 34.6792 21.5267 34.7349C26.2818 35.5665 30.5386 36.7997 34.4309 38.9133C38.3233 41.027 41.5322 43.7354 43.6763 47.5071C41.0083 49.8422 37.8164 50.2412 34.4138 49.7263C29.7271 49.0003 26.1793 46.7914 24.058 42.8601C23.9754 42.7056 23.8729 42.5614 23.7961 42.4044C22.1218 39.0137 20.197 35.8239 16 34.3951L16.0427 33.9857C17.8138 33.4708 19.5535 32.8735 21.3559 32.4951C25.6554 31.5888 30.0147 31.6017 34.3683 32.1501C39.0949 32.7448 42.9104 34.8507 45.9997 38.0715C46.3329 38.419 46.6803 38.7537 47.1387 39.2043C47.3665 37.5772 47.4576 36.0917 47.7936 34.6499C48.7469 30.4921 51.3043 26.7763 55.0088 24.1665C60.7718 20.0009 67.204 17.0891 74.6071 16.1855C75.3987 16.0902 76.1988 16.0645 77.0217 16.0027C76.4152 18.0134 75.6521 19.9031 75.2962 21.8546C74.6043 25.6571 74.2711 29.5163 73.545 33.3112C72.8702 36.8537 71.5234 40.2006 68.5764 42.806C64.8464 46.0911 60.5269 46.9252 55.6039 45.4114C54.6728 45.1257 54.3596 44.7034 54.4649 43.8178C55.0344 39.024 57.0275 34.7246 59.8122 30.6594C62.5571 26.638 66.4893 23.6748 70.413 20.6935C70.8118 20.4269 71.1285 20.0724 71.3326 19.6637C70.803 19.9726 70.282 20.2893 69.7467 20.5879C60.769 25.5799 55.2252 32.8658 52.4006 41.9333C51.2132 45.7487 51.3898 49.6568 51.6802 53.5649C51.945 57.1178 52.2696 60.6655 52.5771 64.2132C52.6027 64.5092 52.691 64.8001 52.7707 65.2043C60.6494 65.8222 67.6453 68.4045 73.5991 73.1545C76.1134 75.1189 78.2722 77.427 79.9972 79.995L20.4504 80.0001Z" fill="white"/>
</g>
<defs>
<clipPath id="clip0_18_2083">
<rect width="64" height="64" fill="white" transform="translate(16 16)"/>
</clipPath>
</defs>
</svg>
