<svg width="184" height="24" viewBox="0 0 184 24" fill="none" xmlns="http://www.w3.org/2000/svg">
<path d="M17.812 5.01699H6.145C3.855 5.01699 2 6.85199 2 9.11599V14.884C2 17.148 3.856 18.984 6.145 18.984H17.812C20.102 18.984 21.957 17.148 21.957 14.884V9.11599C21.957 6.85199 20.101 5.01599 17.812 5.01599V5.01699ZM15.009 12.28L9.552 14.855C9.51872 14.871 9.48192 14.8784 9.44503 14.8763C9.40815 14.8743 9.37237 14.863 9.34103 14.8434C9.3097 14.8239 9.28382 14.7967 9.2658 14.7645C9.24779 14.7322 9.23822 14.6959 9.238 14.659V9.34999C9.23867 9.31286 9.24872 9.27651 9.26722 9.24432C9.28573 9.21212 9.31208 9.18513 9.34382 9.16587C9.37556 9.1466 9.41167 9.13568 9.44877 9.13413C9.48587 9.13258 9.52276 9.14044 9.556 9.15699L15.014 11.892C15.0504 11.9101 15.0809 11.9381 15.102 11.9728C15.1232 12.0075 15.1341 12.0474 15.1336 12.0881C15.1331 12.1287 15.1211 12.1683 15.0991 12.2025C15.077 12.2366 15.0458 12.2638 15.009 12.281V12.28Z" fill="#475569"/>
<path d="M49.046 5.865V8.613H47.032V11.973H49.046V21.959H53.18V11.974H55.955C55.955 11.974 56.215 10.363 56.341 8.601H53.197V6.303C53.197 5.96 53.647 5.498 54.093 5.498H56.347V2H53.283C48.943 2 49.046 5.363 49.046 5.865Z" fill="#475569"/>
<path d="M102 5.90704C101.25 6.23442 100.456 6.44908 99.644 6.54404C100.497 6.04327 101.138 5.24915 101.448 4.31004C100.64 4.78037 99.7587 5.11164 98.841 5.29004C98.4545 4.88525 97.9897 4.56343 97.4748 4.34422C96.9598 4.12501 96.4056 4.01301 95.846 4.01504C93.58 4.01504 91.743 5.82504 91.743 8.05504C91.743 8.37104 91.779 8.68004 91.849 8.97504C90.2236 8.89774 88.6321 8.48245 87.1762 7.75568C85.7202 7.02891 84.4318 6.00662 83.393 4.75404C83.0288 5.36844 82.8374 6.06982 82.839 6.78404C82.8397 7.45201 83.0068 8.10927 83.3253 8.69644C83.6438 9.2836 84.1035 9.78215 84.663 10.147C84.0125 10.126 83.376 9.95237 82.805 9.64004V9.69004C82.805 11.648 84.22 13.281 86.095 13.653C85.7426 13.7465 85.3796 13.7939 85.015 13.794C84.75 13.794 84.493 13.769 84.242 13.719C84.5101 14.527 85.0231 15.2314 85.7098 15.7344C86.3965 16.2374 87.2228 16.5141 88.074 16.526C86.6141 17.6506 84.8218 18.2581 82.979 18.253C82.647 18.253 82.321 18.233 82 18.197C83.8813 19.3877 86.0626 20.0183 88.289 20.015C95.836 20.015 99.962 13.858 99.962 8.51904L99.948 7.99604C100.753 7.42971 101.448 6.72189 102 5.90704Z" fill="#475569"/>
<path d="M136.017 2H127.947C126.37 2.00185 124.858 2.62914 123.744 3.74424C122.629 4.85933 122.002 6.37115 122 7.948V16.018C122.002 17.5948 122.629 19.1066 123.744 20.2215C124.859 21.3364 126.371 21.9634 127.948 21.965H136.018C137.595 21.9631 139.107 21.3359 140.221 20.2208C141.336 19.1057 141.963 17.5938 141.965 16.017V7.947C141.963 6.37015 141.336 4.85844 140.221 3.74353C139.106 2.62862 137.594 2.00159 136.017 2V2ZM139.957 16.017C139.957 16.5344 139.855 17.0468 139.657 17.5248C139.459 18.0028 139.169 18.4371 138.803 18.803C138.437 19.1689 138.003 19.4591 137.525 19.6571C137.047 19.8551 136.534 19.957 136.017 19.957H127.947C126.902 19.9567 125.9 19.5415 125.162 18.8026C124.423 18.0638 124.008 17.0618 124.008 16.017V7.947C124.008 6.90222 124.423 5.90032 125.162 5.16165C125.901 4.42297 126.903 4.008 127.948 4.008H136.018C137.063 4.00827 138.065 4.42349 138.803 5.16235C139.542 5.90122 139.957 6.90322 139.957 7.948V16.018V16.017Z" fill="#475569"/>
<path d="M131.982 6.81897C130.613 6.82109 129.301 7.36576 128.334 8.33358C127.366 9.3014 126.822 10.6134 126.82 11.982C126.822 13.3509 127.366 14.6633 128.334 15.6314C129.302 16.5994 130.614 17.1441 131.983 17.146C133.352 17.1444 134.665 16.5998 135.633 15.6317C136.601 14.6636 137.145 13.3511 137.147 11.982C137.145 10.6131 136.6 9.30085 135.632 8.33316C134.663 7.36547 133.351 6.82129 131.982 6.81997V6.81897ZM131.982 15.138C131.145 15.138 130.343 14.8056 129.751 14.2139C129.159 13.6222 128.827 12.8197 128.827 11.983C128.827 11.1462 129.159 10.3437 129.751 9.75205C130.343 9.16037 131.145 8.82797 131.982 8.82797C132.819 8.82797 133.621 9.16037 134.213 9.75205C134.805 10.3437 135.137 11.1462 135.137 11.983C135.137 12.8197 134.805 13.6222 134.213 14.2139C133.621 14.8056 132.819 15.138 131.982 15.138Z" fill="#475569"/>
<path d="M137.156 8.09497C137.839 8.09497 138.393 7.54115 138.393 6.85797C138.393 6.1748 137.839 5.62097 137.156 5.62097C136.473 5.62097 135.919 6.1748 135.919 6.85797C135.919 7.54115 136.473 8.09497 137.156 8.09497Z" fill="#475569"/>
<path d="M181.959 13.719V21.098H177.681V14.213C177.681 12.483 177.062 11.303 175.514 11.303C174.332 11.303 173.628 12.099 173.319 12.868C173.206 13.143 173.177 13.526 173.177 13.911V21.098H168.897C168.897 21.098 168.955 9.438 168.897 8.229H173.177V10.053L173.149 10.095H173.177V10.053C173.745 9.178 174.76 7.927 177.033 7.927C179.848 7.927 181.959 9.767 181.959 13.719ZM164.421 2.026C162.958 2.026 162 2.986 162 4.249C162 5.484 162.93 6.473 164.365 6.473H164.393C165.886 6.473 166.813 5.484 166.813 4.249C166.787 2.986 165.887 2.026 164.422 2.026H164.421ZM162.254 21.098H166.532V8.229H162.254V21.098Z" fill="#475569"/>
</svg>
