<svg width="100" height="100" viewBox="0 0 100 100" fill="none" xmlns="http://www.w3.org/2000/svg">
<g clip-path="url(#clip0_389_7277)">
<path d="M72.3916 15.9092L69.8347 17.0594C61.9512 20.5007 50.5617 21.7947 40.8575 25.188C36.0053 26.8847 31.5115 29.1468 28.1508 32.7798C24.7902 36.4127 22.7273 41.4164 22.7273 47.8099C22.7273 54.424 26.6594 58.958 30.3203 61.5365C31.8795 62.6388 33.3904 63.4344 34.6591 63.9904C33.1289 66.7989 31.9958 69.3295 31.25 71.5055C29.8941 75.426 29.6811 78.4933 29.7779 80.7076C29.8748 82.9219 30.1653 84.4364 30.1653 84.3885L35.124 84.8486C35.2789 83.0752 34.8141 82.1454 34.7366 80.4776C34.6591 78.8097 34.8044 76.5187 35.9763 73.1158C38.32 66.3197 44.8186 55.1333 61.6994 37.2275L58.1354 33.8534C48.0146 44.5892 41.4773 52.9574 37.2159 59.696C36.1312 59.2647 34.6785 58.6033 33.187 57.5489C30.3106 55.5263 27.686 52.5644 27.686 47.8099C27.686 42.4037 29.2452 38.8379 31.7924 36.0772C34.3395 33.3166 38.0488 31.3419 42.4845 29.7891C50.5133 26.9805 60.45 25.5618 68.9825 22.4274C69.7766 25.4085 72.3141 35.6171 72.3141 51.5675C72.3141 60.6163 70.1737 65.802 67.6653 68.6681C65.1569 71.5342 62.1352 72.349 59.4525 72.349C56.7795 72.349 53.8934 70.9974 51.3947 69.2816C48.8959 67.5658 47.172 65.7733 45.4287 64.6805L42.7944 68.8215C43.24 69.0995 45.7096 71.3617 48.6054 73.3459C51.5012 75.3301 55.1718 77.2568 59.4525 77.2568C63.2684 77.2568 67.9365 75.9244 71.4618 71.8889C74.9871 67.8534 77.2728 61.3735 77.2728 51.5675C77.2728 32.3772 73.1663 18.5931 73.1663 18.5931L72.3916 15.9092Z" fill="#00AB30"/>
<circle opacity="0.2" cx="50" cy="50" r="50" fill="#00AB30"/>
</g>
<defs>
<clipPath id="clip0_389_7277">
<rect width="100" height="100" fill="white"/>
</clipPath>
</defs>
</svg>
