<svg width="69" height="69" viewBox="0 0 69 69" fill="none" xmlns="http://www.w3.org/2000/svg">
<path d="M48.8434 9.4328C48.5194 9.44111 48.1788 9.48265 47.8466 9.56571L13.2905 18.6699C10.4995 19.4009 8.50586 21.9594 8.50586 24.8501V54.0898C8.50586 57.587 11.3883 60.4694 14.8854 60.4694H53.1629C56.66 60.4694 59.5425 57.587 59.5425 54.0898V26.445C59.5425 22.9479 56.66 20.0654 53.1629 20.0654H24.7206L48.9098 13.6859V17.9389H53.1629V13.6859C53.1629 11.2935 51.1277 9.39958 48.8434 9.4328ZM14.8854 24.3185H53.1629C54.3674 24.3185 55.2894 25.2405 55.2894 26.445V54.0898C55.2894 55.2943 54.3674 56.2163 53.1629 56.2163H14.8854C13.681 56.2163 12.7589 55.2943 12.7589 54.0898V26.445C12.7589 25.2405 13.681 24.3185 14.8854 24.3185ZM47.8466 37.0776C46.0855 37.0776 44.6568 38.5064 44.6568 40.2674C44.6568 42.0284 46.0855 43.4572 47.8466 43.4572C49.6076 43.4572 51.0364 42.0284 51.0364 40.2674C51.0364 38.5064 49.6076 37.0776 47.8466 37.0776Z" fill="black"/>
</svg>
