<svg width="96" height="96" viewBox="0 0 96 96" fill="none" xmlns="http://www.w3.org/2000/svg">
<rect x="0.5" y="0.5" width="95" height="95" rx="47.5" fill="#EAB308"/>
<rect x="0.5" y="0.5" width="95" height="95" rx="47.5" stroke="#EAB308"/>
<g clip-path="url(#clip0_18_2087)">
<path d="M60.8204 62.6334C61.184 62.3786 61.5633 62.1476 61.956 61.942C65.3135 60.4785 68.6369 58.9227 72.0587 57.6359C73.422 57.1769 74.8687 57.0313 76.2943 57.2095C78.0393 57.3939 79.2732 58.5809 79.7956 60.321C80.0594 61.1216 80.0722 61.9855 79.8322 62.7938C79.5923 63.6021 79.1113 64.315 78.4556 64.8345C77.4662 65.6203 76.4009 66.3024 75.2761 66.8704C67.9328 70.9691 60.5668 75.0178 53.2349 79.1357C51.384 80.1805 49.586 80.1997 47.6025 79.6082C44.0104 78.5364 40.3463 77.5223 36.6671 76.6926C35.1531 76.3469 33.533 76.5466 31.9697 76.4276C28.7107 76.1856 25.4478 75.9781 22.2039 75.5825C21.0233 75.3806 19.8869 74.9697 18.8465 74.3686C15.5344 72.6247 15.0613 69.3096 17.7109 66.6476C17.973 66.3705 18.2552 66.1137 18.555 65.8793C23.0972 62.5144 27.9271 59.6372 33.2832 57.7742C35.3721 57.0168 37.6405 56.9323 39.7786 57.5322C45.3125 59.038 50.8881 60.4016 56.4334 61.8306C57.0475 61.9744 57.6508 62.1618 58.2389 62.3914C60.6842 63.4132 61.8424 65.7564 61.1005 68.1188C60.3586 70.4812 58.0724 71.7796 55.5325 71.1919C52.0956 70.3775 48.6851 69.4594 45.2633 68.6028C44.7182 68.4684 44.158 68.4223 43.6016 68.3378L43.4729 68.9101C43.9991 69.1345 44.536 69.3319 45.0816 69.5017C48.3142 70.3545 51.5492 71.1906 54.7868 72.0101C57.6219 72.7284 59.8325 72.083 61.2217 70.0548C62.713 67.8615 62.6373 65.6297 61.1914 63.4209C61.0486 63.1681 60.9246 62.9049 60.8204 62.6334Z" fill="white"/>
<path d="M57.338 45.2822C52.4589 41.0337 52.4173 33.7928 57.1601 30.0591C62.0998 33.5816 62.2323 41.3525 57.338 45.2822Z" fill="white"/>
<path d="M45.4563 41.5177C52.1523 40.8378 56.7475 44.3142 56.6188 49.8303C50.7063 51.194 45.3844 47.272 45.4563 41.5177Z" fill="white"/>
<path d="M45.46 50.0148C52.0652 49.2043 56.6074 52.5962 56.6377 58.2429C50.8729 59.741 45.4108 55.7729 45.46 50.0148Z" fill="white"/>
<path d="M69.1631 41.5561C69.0117 47.3718 64.2423 50.8905 58.0309 49.9032C57.535 44.487 62.5579 40.6611 69.1631 41.5561Z" fill="white"/>
<path d="M69.0836 50.0263C69.3713 55.5654 64.2007 59.4336 58.0157 58.3273C57.6372 52.8189 62.6563 49.0736 69.0836 50.0263Z" fill="white"/>
<path d="M65.6086 25.6301C65.4307 29.264 65.2642 32.6021 65.0976 35.9402C64.0983 29.9439 64.2384 26.2025 65.6086 25.6301Z" fill="white"/>
<path d="M57.7998 16C57.656 19.2882 57.5159 22.4649 57.3759 25.6417H56.7778C56.7778 22.4534 56.7778 19.2651 56.8157 16.0768C57.1422 16.0338 57.4707 16.0081 57.7998 16Z" fill="white"/>
<path d="M49.5443 35.9249C49.4005 32.8787 49.2301 29.8325 49.1355 26.7864C49.1355 26.4368 49.5405 26.0719 49.7601 25.7185C49.9266 26.0642 50.2521 26.4176 50.237 26.7595C50.131 29.8325 49.9607 32.8595 49.813 35.9133L49.5443 35.9249Z" fill="white"/>
</g>
<defs>
<clipPath id="clip0_18_2087">
<rect width="64" height="64" fill="white" transform="translate(16 16)"/>
</clipPath>
</defs>
</svg>
